<svg xmlns="http://www.w3.org/2000/svg" viewBox="0 0 1200 630" role="img" aria-label="硅基文明消费股交易系统">
  <defs>
    <linearGradient id="bg" x1="0" y1="630" x2="1200" y2="0" gradientUnits="userSpaceOnUse">
      <stop offset="0" stop-color="#101114"/>
      <stop offset=".58" stop-color="#17231d"/>
      <stop offset="1" stop-color="#263c32"/>
    </linearGradient>
    <filter id="soft-glow" x="-20%" y="-30%" width="140%" height="160%">
      <feGaussianBlur stdDeviation="9" result="blur"/>
      <feMerge><feMergeNode in="blur"/><feMergeNode in="SourceGraphic"/></feMerge>
    </filter>
  </defs>
  <rect width="1200" height="630" fill="url(#bg)"/>
  <g opacity=".14" stroke="#f2f4f1" stroke-width="1">
    <path d="M0 122h1200M0 242h1200M0 362h1200M0 482h1200"/>
    <path d="M164 0v630M344 0v630M524 0v630M704 0v630M884 0v630M1064 0v630"/>
  </g>
  <rect x="74" y="70" width="1052" height="490" rx="34" fill="#181a1f" fill-opacity=".68" stroke="#f2f4f1" stroke-opacity=".14" stroke-width="2"/>
  <text x="112" y="150" fill="#f2b84b" font-family="-apple-system,BlinkMacSystemFont,'Segoe UI','PingFang SC','Microsoft YaHei',sans-serif" font-size="28" font-weight="700">Dashboard 规则评分 · easy-tdx · A股股票池</text>
  <text x="112" y="252" fill="#f2f4f1" font-family="-apple-system,BlinkMacSystemFont,'Segoe UI','PingFang SC','Microsoft YaHei',sans-serif" font-size="84" font-weight="850">硅基文明消费股</text>
  <text x="112" y="352" fill="#f2f4f1" font-family="-apple-system,BlinkMacSystemFont,'Segoe UI','PingFang SC','Microsoft YaHei',sans-serif" font-size="84" font-weight="850">交易系统</text>
  <g font-family="-apple-system,BlinkMacSystemFont,'Segoe UI','PingFang SC','Microsoft YaHei',sans-serif">
    <g transform="translate(112 470)">
      <rect width="956" height="54" rx="14" fill="#121418" stroke="#30343b"/>
      <text x="24" y="36" fill="#63d471" font-size="28" font-weight="800">+104.9%</text>
      <text x="172" y="35" fill="#9ca39a" font-size="20">回测收益</text>
      <text x="320" y="35" fill="#f2f4f1" font-size="22" font-weight="700">年化 +895.2%</text>
      <text x="508" y="35" fill="#f2f4f1" font-size="22" font-weight="700">回撤 -10.5%</text>
      <text x="694" y="35" fill="#f2f4f1" font-size="22" font-weight="700">夏普 5.37</text>
      <text x="820" y="35" fill="#9ca39a" font-size="18">¥2,048,618</text>
    </g>
  </g>
  <polyline points="646.0,358.5 651.0,358.5 656.0,358.5 661.0,358.5 666.0,358.5 671.0,358.5 676.0,358.5 681.0,358.5 686.0,358.5 691.0,358.5 696.0,358.5 701.0,358.5 706.0,358.5 711.0,358.5 716.0,358.5 721.0,358.5 726.0,358.5 731.0,358.5 736.0,358.5 741.0,358.5 746.0,358.5 751.0,358.5 756.0,358.5 761.0,356.3 766.0,356.6 771.0,360.0 776.0,358.6 781.0,358.1 786.0,353.0 791.0,352.6 796.0,349.7 801.0,349.5 806.0,347.8 811.0,347.8 816.0,345.0 821.0,346.6 826.0,344.7 831.0,339.9 836.0,338.4 841.0,336.1 846.0,334.0 851.0,334.4 856.0,336.5 861.0,334.6 866.0,336.7 871.0,335.9 876.0,335.3 881.0,332.2 886.0,330.1 891.0,329.3 896.0,324.1 901.0,323.7 906.0,322.3 911.0,327.5 916.0,328.8 921.0,325.8 926.0,321.4 931.0,318.0 936.0,324.9 941.0,323.3 946.0,314.8 951.0,311.3 956.0,307.6 961.0,310.3 966.0,316.2 971.0,320.6 976.0,318.4 981.0,312.7 986.0,307.9 991.0,312.5 996.0,316.3 1001.0,308.2 1006.0,310.8 1011.0,310.3 1016.0,311.8 1021.0,303.3 1026.0,298.1 1031.0,290.6 1036.0,282.0" fill="none" stroke="#63d471" stroke-width="8" stroke-linecap="round" stroke-linejoin="round" filter="url(#soft-glow)"/>
</svg>
